Coordinates
version=1
nRows=16
nColumns=36
inDegrees=yes

Units are S.I. units (second, meters, Newtons, ...)
If the header above contains a line with 'inDegrees', this indicates whether rotational values are in degrees (yes) or radians (no).

endheader
time	pelvis_tilt	pelvis_list	pelvis_rotation	pelvis_tx	pelvis_ty	pelvis_tz	hip_flexion_r	hip_adduction_r	hip_rotation_r	knee_angle_r	knee_angle_r_beta	ankle_angle_r	subtalar_angle_r	mtp_angle_r	hip_flexion_l	hip_adduction_l	hip_rotation_l	knee_angle_l	knee_angle_l_beta	ankle_angle_l	subtalar_angle_l	mtp_angle_l	lumbar_extension	lumbar_bending	lumbar_rotation	arm_flex_r	arm_add_r	arm_rot_r	elbow_flex_r	pro_sup_r	arm_flex_l	arm_add_l	arm_rot_l	elbow_flex_l	pro_sup_l
      0.00000000	      4.90889752	      6.11717652	    170.03614966	      0.61149692	      0.92673957	      0.75411036	      1.92038065	      7.44584945	      4.04275513	     29.45757601	      0.51413169	     13.56391556	    -11.10491726	     -7.72014812	     30.48949458	    -10.08030279	     -1.54010223	     13.87027564	      0.24208198	     -5.27615740	     -5.84758574	     -7.72014812	    -12.60874134	      5.62306531	     13.10717796	     26.15161475	    -18.74065575	     -0.47048592	     34.61808057	     93.03530275	      5.20959460	     -3.28903140	    -13.84193694	     15.07745194	     92.57397643
      0.01666670	      6.20657934	      7.38811523	    169.07171554	      0.60087748	      0.92167022	      0.76172944	      4.75568260	      8.72507914	      4.94597658	     35.46243330	      0.61893622	     14.32366890	    -10.17583899	     -7.70890187	     30.39413748	    -11.07653781	     -2.29784012	     11.57379967	      0.20200091	     -7.40221484	     -3.15232230	     -7.70890187	    -11.37128039	      7.63292605	     12.50726871	     27.23031695	    -18.53136817	      0.38126528	     35.32568351	     92.90027101	      5.09024806	     -2.00876806	    -13.23025936	     13.43794468	     92.74792703
      0.03333330	      7.13346370	      6.30619497	    169.48065814	      0.59086239	      0.91785941	      0.77046294	      7.72322288	      6.89385327	      3.75504546	     42.00608560	      0.73314450	     15.69764620	     -7.70976169	     -7.69998289	     30.73412331	     -9.35805068	     -2.24709995	     12.16496770	      0.21231874	    -10.01479575	     -4.74750309	     -7.69998289	     -9.49212483	      6.81632977	     11.56896837	     26.11784113	    -18.25605141	      0.71754289	     35.47366504	     92.73579583	      5.43709198	     -1.36040440	    -12.73077685	     12.26960316	     92.84185059
      0.05000000	      6.74300612	      4.99481242	    170.00867156	      0.58431605	      0.91431727	      0.77844000	      9.70878611	      4.49054360	      3.00521178	     48.92382305	      0.85388179	     14.97204556	     -8.62138679	     -7.69713192	     30.60878196	     -7.54081970	     -3.24321099	     14.95208515	      0.26096312	    -10.29632959	     -5.74907973	     -7.69713192	     -9.10170899	      5.41642623	     10.27188040	     25.12754439	    -17.48651919	      0.69957393	     35.51080685	     92.60679871	      6.02583961	     -1.07242918	    -12.50732703	     11.94010262	     92.84407324
      0.06666670	      7.44793003	      3.97842704	    170.56527125	      0.57842483	      0.90958117	      0.78210904	     13.18243813	      2.45866585	      2.22003883	     56.12214568	      0.97951623	     12.46962196	     -9.75502437	     -7.68317876	     31.54546600	     -6.28632747	     -4.03637991	     17.77674985	      0.31026282	    -10.21477509	     -6.97553797	     -7.68317876	     -7.05482091	      4.71253741	      9.05464029	     23.48654770	    -16.42398022	     -0.57683676	     35.16763299	     91.90311094	      6.40216980	     -0.97612650	    -11.44582088	     11.07040653	     92.72454418
      0.08333330	      6.79374868	      3.33112984	    171.12514142	      0.57144405	      0.90829022	      0.78039348	     14.99851771	      0.83087190	      1.97067983	     62.37669313	      1.08867867	      9.25488995	    -11.18555109	     -7.67861302	     30.53953842	     -5.31225664	     -4.54923159	     19.97357395	      0.34860463	     -9.04992126	     -7.90464875	     -7.67861302	     -6.93796054	      3.92073164	      7.65464027	     22.23018211	    -15.22068867	     -0.93878651	     34.99111451	     91.65771860	      6.74811067	     -1.25633806	    -11.08376795	     11.00370893	     92.62263738
      0.10000000	      6.29258148	      2.91262320	    171.38733697	      0.56472910	      0.90864809	      0.77620996	     16.81081255	     -0.06631257	      2.20543482	     67.92989309	      1.18560029	      6.50056118	    -12.67845976	     -7.67324508	     29.21503792	     -4.75685667	     -4.85037366	     21.56466768	      0.37637445	     -7.60084262	     -8.61446640	     -7.67324508	     -6.72555573	      3.16218145	      6.61000756	     20.74955307	    -13.80556146	     -1.58930875	     34.29981022	     91.39959396	      6.89980513	     -1.68776864	    -10.58249086	     10.90092518	     92.52970718
      0.11666670	      5.64538134	      2.75849498	    171.44592009	      0.56110664	      0.91106905	      0.77401911	     18.36979270	     -0.37546431	      2.59847984	     72.75919386	      1.26988749	      5.07491315	    -14.11900693	     -7.66769646	     27.52205007	     -4.48329548	     -4.92461731	     22.84288432	      0.39868354	     -5.57941375	     -8.99883429	     -7.66769646	     -6.85081549	      2.55483654	      5.97284455	     19.26912767	    -12.54526353	     -2.06980009	     33.49421299	     91.19696659	      7.21436924	     -2.13274565	    -10.04382106	     11.05931782	     92.42717971
      0.13333330	      4.89766052	      2.94101648	    171.60110725	      0.56116317	      0.91368227	      0.77527720	     20.03503476	     -0.32725584	      2.73193653	     76.78271283	      1.34011115	      4.71545448	    -15.16594680	     -7.66619966	     25.85676538	     -4.36924431	     -4.45911819	     24.15269692	      0.42154408	     -3.56427262	     -9.65373287	     -7.66619966	     -7.56806315	      2.29565670	      5.42672086	     17.96219170	    -11.67047564	     -1.98265037	     32.97596766	     91.13864139	      7.88153104	     -2.42857342	     -9.90578041	     11.45010410	     92.37937195
      0.15000000	      4.25580091	      3.02206334	    171.73240191	      0.56281769	      0.91600365	      0.77820560	     22.41827955	     -0.40140712	      2.88946975	     79.87588672	      1.39409722	      4.52252778	    -16.29937607	     -7.66446996	     24.43732855	     -4.14720931	     -4.06337046	     25.58113388	      0.44647501	     -1.67738868	    -10.06288840	     -7.66446996	     -8.40982142	      2.01701394	      4.95227607	     16.84528151	    -10.83461419	     -1.90925737	     32.41484035	     91.03344506	      8.80002020	     -2.82772681	     -9.74776964	     12.10695912	     92.30882663
      0.16666670	      4.76891015	      2.62421204	    171.67428182	      0.56290232	      0.91775854	      0.78012690	     26.39798154	     -0.71358920	      3.23649892	     81.67417820	      1.42548332	      3.40904404	    -18.47381485	     -7.66083054	     24.30686377	     -3.82963982	     -4.49237860	     27.18183306	      0.47441248	      0.73811114	     -8.87404034	     -7.66083054	     -7.67448819	      1.45715503	      4.48531386	     15.89428499	     -9.66655891	     -2.90773772	     29.84105349	     89.81750921	      9.18925439	     -3.72867454	     -7.31970427	     13.12435937	     91.84742686
      0.18333330	      4.78223862	      2.08730065	    171.96389625	      0.56162302	      0.92121030	      0.78143143	     29.16163211	     -1.45662823	      3.15279632	     81.45080950	      1.42158480	      2.35376786	    -19.87713577	     -7.65142698	     23.12986989	     -2.89042806	     -3.99319720	     27.53253748	      0.48053343	      1.46809934	     -9.08580417	     -7.65142698	     -7.73615936	      0.92114091	      3.87067700	     14.41368027	     -9.12623893	     -3.40246205	     28.83027797	     88.02283539	      9.72562323	     -4.39426457	     -6.54124917	     14.31013984	     90.25221909
      0.20000000	      5.12709892	      1.70477613	    172.29553563	      0.56279172	      0.92487274	      0.78210638	     31.38008061	     -1.93619170	      2.64579755	     79.28606000	      1.38380280	      1.24589487	    -20.81529633	     -7.65299851	     21.91542344	     -2.19021635	     -3.48484451	     26.70582616	      0.46610460	      1.76686813	     -8.64455886	     -7.65299851	     -7.27334501	      0.74086614	      2.97683949	     13.21269128	     -8.31026878	     -5.33158434	     26.49707583	     88.17470543	     10.06652638	     -5.39208517	     -4.49865247	     15.40477906	     91.26993196
      0.21666670	      5.56571384	      1.38100242	    172.57409405	      0.56929178	      0.92815219	      0.78347988	     33.32663635	     -2.10335121	      2.22477224	     75.86219767	      1.32404513	     -0.50969918	    -22.19902791	     -7.63875309	     20.90724951	     -1.55976803	     -2.84849608	     25.34276521	      0.44231469	      1.46676250	     -8.68533551	     -7.63875309	     -7.11356275	      0.61863650	      2.33662805	     11.52170810	     -7.62137380	     -7.79841436	     25.42070057	     88.02334954	     10.95915776	     -6.33509512	     -2.86210276	     17.25633536	     92.00867872
      0.23333330	      6.03838811	      1.00327566	    172.91312962	      0.57658057	      0.93009770	      0.78441382	     35.09323830	     -2.14954553	      2.02348868	     71.80969709	      1.25331565	     -2.09849704	    -22.92086340	     -7.63342531	     20.40627008	     -0.88081055	     -2.11340485	     24.56198063	      0.42868743	      1.27959010	     -9.08111580	     -7.63342531	     -7.08642730	      0.38508201	      1.51879772	      9.87083800	     -7.12048860	     -8.68007680	     24.24698410	     87.62361859	     12.51422410	     -7.13810308	     -2.12445705	     18.49624877	     91.99496263
      0.25000000	      6.49410498	      0.34168027	    173.32872007	      0.57857040	      0.92985759	      0.78324186	     36.36220332	     -2.40748433	      1.93817949	     67.35404131	      1.17554979	     -3.33360656	    -22.51352181	     -7.60586190	     19.97506330	      0.04500019	     -1.46579288	     24.31313162	      0.42434420	      1.50390442	     -9.57231425	     -7.60586190	     -6.86995150	     -0.27879107	      0.96131248	      7.64851413	     -6.06444368	    -12.21935158	     23.45247175	     86.51086033	     14.44396617	     -8.74199640	      3.01377379	     19.96297845	     92.18213747
